# xmcd CD database file
#
# Track frame offsets:
#	300
#	17558
#	35748
#	53709
#	69423
#	85804
#	103762
#	121342
#	139376
#	157300
#	180094
#	199612
#	217142
#	236345
#	253665
#	271785
#	287448
#	301023
#
# Disc length: 4281 seconds
#
# Revision: 7
# Processed by: cddbd v1.5.2PL0 Copyright (c) Steve Scherf et al.
# Submitted via: CDex 1.51
#
DISCID=fa10b512
DTITLE=Various Artist - SF352
DYEAR=2015
DGENRE=Blues
TTITLE0=Taylor Swift - Bad blood
TTITLE1=Kygo Ft parson James - Stole The Show
TTITLE2=Galantis - Runaway (u and i)
TTITLE3=David Guetta Ft Nicki Minaj and Afrojack - Hey Mama
TTITLE4=Jessie J - flashlight
TTITLE5=Alesso Ft Roy English - Cool
TTITLE6=Charles Hamilton Ft Rita Ora - New York Raining
TTITLE7=Fetty Wap - Trap Queen
TTITLE8=Martin garrix Ft Usher - don't Look Down
TTITLE9=Ciara - I Bet
TTITLE10=Skrillex and Diplo Ft Justin Bieber - Where Are U Now
TTITLE11=All Time Low - Kids In The Dark
TTITLE12=Tove Lo - Talking Body
TTITLE13=Ella Eyre - Together
TTITLE14=Fifth Harmony Ft Kid Ink - Worth It
TTITLE15=Natalie La Rose Ft Jeremith - Somebody
TTITLE16=Britney Spears and Iggy Azalea - Pretty Girls
TTITLE17=Mariah Carey - Infinity
EXTD=
EXTT0=
EXTT1=
EXTT2=
EXTT3=
EXTT4=
EXTT5=
EXTT6=
EXTT7=
EXTT8=
EXTT9=
EXTT10=
EXTT11=
EXTT12=
EXTT13=
EXTT14=
EXTT15=
EXTT16=
EXTT17=
PLAYORDER=
